<mxfile host="Electron" modified="2023-12-24T18:31:00.221Z" agent="Mozilla/5.0 (Windows NT 10.0; Win64; x64) AppleWebKit/537.36 (KHTML, like Gecko) draw.io/22.1.2 Chrome/114.0.5735.289 Electron/25.9.4 Safari/537.36" etag="q-Pn8zvBLTWzs62d_sQE" version="22.1.2" type="device">
  <diagram name="Sayfa -1" id="In8hAbX_p5DlY_0Dv7wu">
    <mxGraphModel dx="1909" dy="1129" grid="1" gridSize="10" guides="1" tooltips="1" connect="1" arrows="1" fold="1" page="1" pageScale="1" pageWidth="827" pageHeight="1169" math="0" shadow="0">
      <root>
        <mxCell id="0" />
        <mxCell id="1" parent="0" />
        <mxCell id="tLTFq7rCDnLnKD5RyEbU-1" value="müşteri" style="whiteSpace=wrap;html=1;align=center;fillColor=#a20025;fontColor=#ffffff;strokeColor=#6F0000;" vertex="1" parent="1">
          <mxGeometry x="190" y="220" width="100" height="40" as="geometry" />
        </mxCell>
        <mxCell id="tLTFq7rCDnLnKD5RyEbU-107" style="edgeStyle=orthogonalEdgeStyle;rounded=0;orthogonalLoop=1;jettySize=auto;html=1;exitX=1;exitY=0.5;exitDx=0;exitDy=0;entryX=0;entryY=1;entryDx=0;entryDy=0;endArrow=none;endFill=0;" edge="1" parent="1" source="tLTFq7rCDnLnKD5RyEbU-2" target="tLTFq7rCDnLnKD5RyEbU-96">
          <mxGeometry relative="1" as="geometry" />
        </mxCell>
        <mxCell id="tLTFq7rCDnLnKD5RyEbU-183" value="m" style="edgeLabel;html=1;align=center;verticalAlign=middle;resizable=0;points=[];" vertex="1" connectable="0" parent="tLTFq7rCDnLnKD5RyEbU-107">
          <mxGeometry x="0.1652" y="-2" relative="1" as="geometry">
            <mxPoint x="-1" as="offset" />
          </mxGeometry>
        </mxCell>
        <mxCell id="tLTFq7rCDnLnKD5RyEbU-109" style="edgeStyle=orthogonalEdgeStyle;rounded=0;orthogonalLoop=1;jettySize=auto;html=1;exitX=1;exitY=1;exitDx=0;exitDy=0;endArrow=none;endFill=0;" edge="1" parent="1" source="tLTFq7rCDnLnKD5RyEbU-2" target="tLTFq7rCDnLnKD5RyEbU-95">
          <mxGeometry relative="1" as="geometry" />
        </mxCell>
        <mxCell id="tLTFq7rCDnLnKD5RyEbU-181" value="m" style="edgeLabel;html=1;align=center;verticalAlign=middle;resizable=0;points=[];" vertex="1" connectable="0" parent="tLTFq7rCDnLnKD5RyEbU-109">
          <mxGeometry x="0.2375" y="5" relative="1" as="geometry">
            <mxPoint x="-1" as="offset" />
          </mxGeometry>
        </mxCell>
        <mxCell id="tLTFq7rCDnLnKD5RyEbU-130" style="edgeStyle=orthogonalEdgeStyle;rounded=0;orthogonalLoop=1;jettySize=auto;html=1;exitX=0.5;exitY=0;exitDx=0;exitDy=0;entryX=0.5;entryY=1;entryDx=0;entryDy=0;endArrow=none;endFill=0;" edge="1" parent="1" source="tLTFq7rCDnLnKD5RyEbU-2" target="tLTFq7rCDnLnKD5RyEbU-128">
          <mxGeometry relative="1" as="geometry" />
        </mxCell>
        <mxCell id="tLTFq7rCDnLnKD5RyEbU-171" value="1" style="edgeLabel;html=1;align=center;verticalAlign=middle;resizable=0;points=[];" vertex="1" connectable="0" parent="tLTFq7rCDnLnKD5RyEbU-130">
          <mxGeometry x="-0.0818" y="-2" relative="1" as="geometry">
            <mxPoint as="offset" />
          </mxGeometry>
        </mxCell>
        <mxCell id="tLTFq7rCDnLnKD5RyEbU-2" value="personel" style="whiteSpace=wrap;html=1;align=center;fillColor=#a20025;fontColor=#ffffff;strokeColor=#6F0000;" vertex="1" parent="1">
          <mxGeometry x="150" y="990" width="100" height="40" as="geometry" />
        </mxCell>
        <mxCell id="tLTFq7rCDnLnKD5RyEbU-112" style="edgeStyle=orthogonalEdgeStyle;rounded=0;orthogonalLoop=1;jettySize=auto;html=1;exitX=1;exitY=0.5;exitDx=0;exitDy=0;endArrow=none;endFill=0;" edge="1" parent="1" source="tLTFq7rCDnLnKD5RyEbU-4" target="tLTFq7rCDnLnKD5RyEbU-97">
          <mxGeometry relative="1" as="geometry" />
        </mxCell>
        <mxCell id="tLTFq7rCDnLnKD5RyEbU-179" value="1" style="edgeLabel;html=1;align=center;verticalAlign=middle;resizable=0;points=[];" vertex="1" connectable="0" parent="tLTFq7rCDnLnKD5RyEbU-112">
          <mxGeometry x="-0.4" y="5" relative="1" as="geometry">
            <mxPoint x="-1" as="offset" />
          </mxGeometry>
        </mxCell>
        <mxCell id="tLTFq7rCDnLnKD5RyEbU-4" value="departmanlar" style="whiteSpace=wrap;html=1;align=center;fillColor=#a20025;fontColor=#ffffff;strokeColor=#6F0000;" vertex="1" parent="1">
          <mxGeometry x="460" y="1040" width="100" height="40" as="geometry" />
        </mxCell>
        <mxCell id="tLTFq7rCDnLnKD5RyEbU-124" style="edgeStyle=orthogonalEdgeStyle;rounded=0;orthogonalLoop=1;jettySize=auto;html=1;exitX=0;exitY=0.5;exitDx=0;exitDy=0;entryX=1;entryY=0.5;entryDx=0;entryDy=0;endArrow=none;endFill=0;" edge="1" parent="1" source="tLTFq7rCDnLnKD5RyEbU-6" target="tLTFq7rCDnLnKD5RyEbU-98">
          <mxGeometry relative="1" as="geometry" />
        </mxCell>
        <mxCell id="tLTFq7rCDnLnKD5RyEbU-176" value="m" style="edgeLabel;html=1;align=center;verticalAlign=middle;resizable=0;points=[];" vertex="1" connectable="0" parent="tLTFq7rCDnLnKD5RyEbU-124">
          <mxGeometry x="-0.2762" relative="1" as="geometry">
            <mxPoint x="-1" as="offset" />
          </mxGeometry>
        </mxCell>
        <mxCell id="tLTFq7rCDnLnKD5RyEbU-136" style="edgeStyle=orthogonalEdgeStyle;rounded=0;orthogonalLoop=1;jettySize=auto;html=1;exitX=0;exitY=0;exitDx=0;exitDy=0;entryX=0.5;entryY=1;entryDx=0;entryDy=0;endArrow=none;endFill=0;" edge="1" parent="1" source="tLTFq7rCDnLnKD5RyEbU-6" target="tLTFq7rCDnLnKD5RyEbU-100">
          <mxGeometry relative="1" as="geometry" />
        </mxCell>
        <mxCell id="tLTFq7rCDnLnKD5RyEbU-174" value="m" style="edgeLabel;html=1;align=center;verticalAlign=middle;resizable=0;points=[];" vertex="1" connectable="0" parent="tLTFq7rCDnLnKD5RyEbU-136">
          <mxGeometry x="0.2829" y="-1" relative="1" as="geometry">
            <mxPoint as="offset" />
          </mxGeometry>
        </mxCell>
        <mxCell id="tLTFq7rCDnLnKD5RyEbU-6" value="giderler" style="whiteSpace=wrap;html=1;align=center;fillColor=#a20025;fontColor=#ffffff;strokeColor=#6F0000;" vertex="1" parent="1">
          <mxGeometry x="645" y="610" width="100" height="40" as="geometry" />
        </mxCell>
        <mxCell id="tLTFq7rCDnLnKD5RyEbU-8" style="edgeStyle=orthogonalEdgeStyle;rounded=0;orthogonalLoop=1;jettySize=auto;html=1;exitX=0.5;exitY=1;exitDx=0;exitDy=0;" edge="1" parent="1" source="tLTFq7rCDnLnKD5RyEbU-1" target="tLTFq7rCDnLnKD5RyEbU-1">
          <mxGeometry relative="1" as="geometry" />
        </mxCell>
        <mxCell id="tLTFq7rCDnLnKD5RyEbU-129" style="edgeStyle=orthogonalEdgeStyle;rounded=0;orthogonalLoop=1;jettySize=auto;html=1;exitX=0.25;exitY=1;exitDx=0;exitDy=0;entryX=0.5;entryY=0;entryDx=0;entryDy=0;endArrow=none;endFill=0;" edge="1" parent="1" source="tLTFq7rCDnLnKD5RyEbU-9" target="tLTFq7rCDnLnKD5RyEbU-128">
          <mxGeometry relative="1" as="geometry" />
        </mxCell>
        <mxCell id="tLTFq7rCDnLnKD5RyEbU-170" value="m" style="edgeLabel;html=1;align=center;verticalAlign=middle;resizable=0;points=[];" vertex="1" connectable="0" parent="tLTFq7rCDnLnKD5RyEbU-129">
          <mxGeometry x="0.3012" y="1" relative="1" as="geometry">
            <mxPoint as="offset" />
          </mxGeometry>
        </mxCell>
        <mxCell id="tLTFq7rCDnLnKD5RyEbU-9" value="isler" style="whiteSpace=wrap;html=1;align=center;fillColor=#a20025;fontColor=#ffffff;strokeColor=#6F0000;" vertex="1" parent="1">
          <mxGeometry x="174" y="500" width="100" height="40" as="geometry" />
        </mxCell>
        <mxCell id="tLTFq7rCDnLnKD5RyEbU-111" style="edgeStyle=orthogonalEdgeStyle;rounded=0;orthogonalLoop=1;jettySize=auto;html=1;exitX=0.5;exitY=1;exitDx=0;exitDy=0;entryX=1;entryY=0;entryDx=0;entryDy=0;endArrow=none;endFill=0;" edge="1" parent="1" source="tLTFq7rCDnLnKD5RyEbU-10" target="tLTFq7rCDnLnKD5RyEbU-97">
          <mxGeometry relative="1" as="geometry" />
        </mxCell>
        <mxCell id="tLTFq7rCDnLnKD5RyEbU-178" value="1" style="edgeLabel;html=1;align=center;verticalAlign=middle;resizable=0;points=[];" vertex="1" connectable="0" parent="tLTFq7rCDnLnKD5RyEbU-111">
          <mxGeometry x="-0.4811" relative="1" as="geometry">
            <mxPoint as="offset" />
          </mxGeometry>
        </mxCell>
        <mxCell id="tLTFq7rCDnLnKD5RyEbU-10" value="maaslar" style="whiteSpace=wrap;html=1;align=center;fillColor=#a20025;fontColor=#ffffff;strokeColor=#6F0000;" vertex="1" parent="1">
          <mxGeometry x="710" y="990" width="100" height="40" as="geometry" />
        </mxCell>
        <mxCell id="tLTFq7rCDnLnKD5RyEbU-13" style="edgeStyle=orthogonalEdgeStyle;rounded=0;orthogonalLoop=1;jettySize=auto;html=1;exitX=0.5;exitY=1;exitDx=0;exitDy=0;" edge="1" parent="1" source="tLTFq7rCDnLnKD5RyEbU-4" target="tLTFq7rCDnLnKD5RyEbU-4">
          <mxGeometry relative="1" as="geometry" />
        </mxCell>
        <mxCell id="tLTFq7rCDnLnKD5RyEbU-49" style="edgeStyle=orthogonalEdgeStyle;rounded=0;orthogonalLoop=1;jettySize=auto;html=1;exitX=1;exitY=0.5;exitDx=0;exitDy=0;entryX=0;entryY=1;entryDx=0;entryDy=0;endArrow=none;endFill=0;" edge="1" parent="1" source="tLTFq7rCDnLnKD5RyEbU-14" target="tLTFq7rCDnLnKD5RyEbU-2">
          <mxGeometry relative="1" as="geometry">
            <Array as="points">
              <mxPoint x="130" y="1110" />
              <mxPoint x="130" y="1030" />
            </Array>
          </mxGeometry>
        </mxCell>
        <mxCell id="tLTFq7rCDnLnKD5RyEbU-14" value="per_soyad" style="ellipse;whiteSpace=wrap;html=1;align=center;fillColor=#0050ef;fontColor=#ffffff;strokeColor=#001DBC;" vertex="1" parent="1">
          <mxGeometry x="60" y="1090" width="60" height="40" as="geometry" />
        </mxCell>
        <mxCell id="tLTFq7rCDnLnKD5RyEbU-51" style="edgeStyle=orthogonalEdgeStyle;rounded=0;orthogonalLoop=1;jettySize=auto;html=1;exitX=0.5;exitY=0;exitDx=0;exitDy=0;entryX=0.5;entryY=1;entryDx=0;entryDy=0;endArrow=none;endFill=0;" edge="1" parent="1" source="tLTFq7rCDnLnKD5RyEbU-15" target="tLTFq7rCDnLnKD5RyEbU-2">
          <mxGeometry relative="1" as="geometry" />
        </mxCell>
        <mxCell id="tLTFq7rCDnLnKD5RyEbU-15" value="per_tel" style="ellipse;whiteSpace=wrap;html=1;align=center;fillColor=#0050ef;fontColor=#ffffff;strokeColor=#001DBC;" vertex="1" parent="1">
          <mxGeometry x="220" y="1100" width="60" height="40" as="geometry" />
        </mxCell>
        <mxCell id="tLTFq7rCDnLnKD5RyEbU-50" style="edgeStyle=orthogonalEdgeStyle;rounded=0;orthogonalLoop=1;jettySize=auto;html=1;exitX=1;exitY=0;exitDx=0;exitDy=0;entryX=0.25;entryY=1;entryDx=0;entryDy=0;endArrow=none;endFill=0;" edge="1" parent="1" source="tLTFq7rCDnLnKD5RyEbU-16" target="tLTFq7rCDnLnKD5RyEbU-2">
          <mxGeometry relative="1" as="geometry" />
        </mxCell>
        <mxCell id="tLTFq7rCDnLnKD5RyEbU-16" value="per_yas" style="ellipse;whiteSpace=wrap;html=1;align=center;fillColor=#0050ef;fontColor=#ffffff;strokeColor=#001DBC;" vertex="1" parent="1">
          <mxGeometry x="130" y="1100" width="60" height="40" as="geometry" />
        </mxCell>
        <mxCell id="tLTFq7rCDnLnKD5RyEbU-48" style="edgeStyle=orthogonalEdgeStyle;rounded=0;orthogonalLoop=1;jettySize=auto;html=1;exitX=1;exitY=0.5;exitDx=0;exitDy=0;entryX=0;entryY=0.5;entryDx=0;entryDy=0;endArrow=none;endFill=0;" edge="1" parent="1" source="tLTFq7rCDnLnKD5RyEbU-17" target="tLTFq7rCDnLnKD5RyEbU-2">
          <mxGeometry relative="1" as="geometry">
            <Array as="points">
              <mxPoint x="115" y="1065" />
              <mxPoint x="115" y="1020" />
              <mxPoint x="150" y="1020" />
            </Array>
          </mxGeometry>
        </mxCell>
        <mxCell id="tLTFq7rCDnLnKD5RyEbU-17" value="per_ad" style="ellipse;whiteSpace=wrap;html=1;align=center;fillColor=#0050ef;fontColor=#ffffff;strokeColor=#001DBC;" vertex="1" parent="1">
          <mxGeometry x="20" y="1050" width="60" height="30" as="geometry" />
        </mxCell>
        <mxCell id="tLTFq7rCDnLnKD5RyEbU-127" style="edgeStyle=orthogonalEdgeStyle;rounded=0;orthogonalLoop=1;jettySize=auto;html=1;exitX=1;exitY=1;exitDx=0;exitDy=0;entryX=0.25;entryY=0;entryDx=0;entryDy=0;endArrow=none;endFill=0;" edge="1" parent="1" source="tLTFq7rCDnLnKD5RyEbU-18" target="tLTFq7rCDnLnKD5RyEbU-2">
          <mxGeometry relative="1" as="geometry">
            <Array as="points">
              <mxPoint x="141" y="950" />
              <mxPoint x="175" y="950" />
            </Array>
          </mxGeometry>
        </mxCell>
        <mxCell id="tLTFq7rCDnLnKD5RyEbU-18" value="per_id" style="ellipse;whiteSpace=wrap;html=1;align=center;fontStyle=4;fillColor=#e3c800;fontColor=#000000;strokeColor=#B09500;" vertex="1" parent="1">
          <mxGeometry x="90" y="900" width="60" height="40" as="geometry" />
        </mxCell>
        <mxCell id="tLTFq7rCDnLnKD5RyEbU-106" style="edgeStyle=orthogonalEdgeStyle;rounded=0;orthogonalLoop=1;jettySize=auto;html=1;exitX=0;exitY=0.5;exitDx=0;exitDy=0;entryX=1;entryY=0;entryDx=0;entryDy=0;endArrow=none;endFill=0;" edge="1" parent="1" source="tLTFq7rCDnLnKD5RyEbU-26" target="tLTFq7rCDnLnKD5RyEbU-96">
          <mxGeometry relative="1" as="geometry" />
        </mxCell>
        <mxCell id="tLTFq7rCDnLnKD5RyEbU-182" value="1" style="edgeLabel;html=1;align=center;verticalAlign=middle;resizable=0;points=[];" vertex="1" connectable="0" parent="tLTFq7rCDnLnKD5RyEbU-106">
          <mxGeometry x="0.0982" y="-2" relative="1" as="geometry">
            <mxPoint x="-1" as="offset" />
          </mxGeometry>
        </mxCell>
        <mxCell id="tLTFq7rCDnLnKD5RyEbU-26" value="sehirler" style="whiteSpace=wrap;html=1;align=center;fillColor=#a20025;fontColor=#ffffff;strokeColor=#6F0000;" vertex="1" parent="1">
          <mxGeometry x="430" y="795" width="100" height="40" as="geometry" />
        </mxCell>
        <mxCell id="tLTFq7rCDnLnKD5RyEbU-135" style="edgeStyle=orthogonalEdgeStyle;rounded=0;orthogonalLoop=1;jettySize=auto;html=1;exitX=0.25;exitY=1;exitDx=0;exitDy=0;entryX=0.5;entryY=0;entryDx=0;entryDy=0;endArrow=none;endFill=0;" edge="1" parent="1" source="tLTFq7rCDnLnKD5RyEbU-30" target="tLTFq7rCDnLnKD5RyEbU-100">
          <mxGeometry relative="1" as="geometry" />
        </mxCell>
        <mxCell id="tLTFq7rCDnLnKD5RyEbU-175" value="1" style="edgeLabel;html=1;align=center;verticalAlign=middle;resizable=0;points=[];" vertex="1" connectable="0" parent="tLTFq7rCDnLnKD5RyEbU-135">
          <mxGeometry x="-0.0231" y="2" relative="1" as="geometry">
            <mxPoint x="-1" as="offset" />
          </mxGeometry>
        </mxCell>
        <mxCell id="tLTFq7rCDnLnKD5RyEbU-30" value="fisler" style="whiteSpace=wrap;html=1;align=center;fillColor=#a20025;fontColor=#ffffff;strokeColor=#6F0000;" vertex="1" parent="1">
          <mxGeometry x="650" y="300" width="100" height="40" as="geometry" />
        </mxCell>
        <mxCell id="tLTFq7rCDnLnKD5RyEbU-36" style="edgeStyle=orthogonalEdgeStyle;rounded=0;orthogonalLoop=1;jettySize=auto;html=1;exitX=0.5;exitY=0;exitDx=0;exitDy=0;entryX=0.75;entryY=1;entryDx=0;entryDy=0;endArrow=none;endFill=0;" edge="1" parent="1" source="tLTFq7rCDnLnKD5RyEbU-32" target="tLTFq7rCDnLnKD5RyEbU-4">
          <mxGeometry relative="1" as="geometry" />
        </mxCell>
        <mxCell id="tLTFq7rCDnLnKD5RyEbU-32" value="departman_ad" style="ellipse;whiteSpace=wrap;html=1;align=center;fillColor=#0050ef;fontColor=#ffffff;strokeColor=#001DBC;" vertex="1" parent="1">
          <mxGeometry x="490" y="1100" width="100" height="40" as="geometry" />
        </mxCell>
        <mxCell id="tLTFq7rCDnLnKD5RyEbU-33" value="departman_id" style="ellipse;whiteSpace=wrap;html=1;align=center;fontStyle=4;fillColor=#e3c800;fontColor=#000000;strokeColor=#B09500;" vertex="1" parent="1">
          <mxGeometry x="380" y="1100" width="100" height="40" as="geometry" />
        </mxCell>
        <mxCell id="tLTFq7rCDnLnKD5RyEbU-34" style="edgeStyle=orthogonalEdgeStyle;rounded=0;orthogonalLoop=1;jettySize=auto;html=1;exitX=0.5;exitY=0;exitDx=0;exitDy=0;entryX=0.173;entryY=1.079;entryDx=0;entryDy=0;entryPerimeter=0;endArrow=none;endFill=0;" edge="1" parent="1" source="tLTFq7rCDnLnKD5RyEbU-33" target="tLTFq7rCDnLnKD5RyEbU-4">
          <mxGeometry relative="1" as="geometry" />
        </mxCell>
        <mxCell id="tLTFq7rCDnLnKD5RyEbU-39" style="edgeStyle=orthogonalEdgeStyle;rounded=0;orthogonalLoop=1;jettySize=auto;html=1;exitX=0.5;exitY=0;exitDx=0;exitDy=0;entryX=0.25;entryY=1;entryDx=0;entryDy=0;endArrow=none;endFill=0;" edge="1" parent="1" source="tLTFq7rCDnLnKD5RyEbU-37" target="tLTFq7rCDnLnKD5RyEbU-26">
          <mxGeometry relative="1" as="geometry" />
        </mxCell>
        <mxCell id="tLTFq7rCDnLnKD5RyEbU-37" value="sehir_id" style="ellipse;whiteSpace=wrap;html=1;align=center;fontStyle=4;fillColor=#e3c800;fontColor=#000000;strokeColor=#B09500;" vertex="1" parent="1">
          <mxGeometry x="380" y="875" width="100" height="40" as="geometry" />
        </mxCell>
        <mxCell id="tLTFq7rCDnLnKD5RyEbU-40" style="edgeStyle=orthogonalEdgeStyle;rounded=0;orthogonalLoop=1;jettySize=auto;html=1;exitX=0.5;exitY=0;exitDx=0;exitDy=0;entryX=0.75;entryY=1;entryDx=0;entryDy=0;endArrow=none;endFill=0;" edge="1" parent="1" source="tLTFq7rCDnLnKD5RyEbU-38" target="tLTFq7rCDnLnKD5RyEbU-26">
          <mxGeometry relative="1" as="geometry" />
        </mxCell>
        <mxCell id="tLTFq7rCDnLnKD5RyEbU-38" value="sehir_ad" style="ellipse;whiteSpace=wrap;html=1;align=center;fillColor=#0050ef;fontColor=#ffffff;strokeColor=#001DBC;" vertex="1" parent="1">
          <mxGeometry x="490" y="875" width="100" height="40" as="geometry" />
        </mxCell>
        <mxCell id="tLTFq7rCDnLnKD5RyEbU-103" style="edgeStyle=orthogonalEdgeStyle;rounded=0;orthogonalLoop=1;jettySize=auto;html=1;exitX=1;exitY=0;exitDx=0;exitDy=0;entryX=0;entryY=0.25;entryDx=0;entryDy=0;endArrow=none;endFill=0;" edge="1" parent="1" source="tLTFq7rCDnLnKD5RyEbU-42" target="tLTFq7rCDnLnKD5RyEbU-2">
          <mxGeometry relative="1" as="geometry" />
        </mxCell>
        <mxCell id="tLTFq7rCDnLnKD5RyEbU-42" value="sehir_id" style="ellipse;whiteSpace=wrap;html=1;align=center;fontStyle=4;fillColor=#e3c800;fontColor=#000000;strokeColor=#B09500;" vertex="1" parent="1">
          <mxGeometry y="1000" width="100" height="40" as="geometry" />
        </mxCell>
        <mxCell id="tLTFq7rCDnLnKD5RyEbU-52" value="musteri_tel" style="ellipse;whiteSpace=wrap;html=1;align=center;fillColor=#0050ef;fontColor=#ffffff;strokeColor=#001DBC;" vertex="1" parent="1">
          <mxGeometry x="150" y="130" width="100" height="40" as="geometry" />
        </mxCell>
        <mxCell id="tLTFq7rCDnLnKD5RyEbU-57" style="edgeStyle=orthogonalEdgeStyle;rounded=0;orthogonalLoop=1;jettySize=auto;html=1;exitX=0.5;exitY=1;exitDx=0;exitDy=0;entryX=0.75;entryY=0;entryDx=0;entryDy=0;endArrow=none;endFill=0;" edge="1" parent="1" source="tLTFq7rCDnLnKD5RyEbU-53" target="tLTFq7rCDnLnKD5RyEbU-1">
          <mxGeometry relative="1" as="geometry" />
        </mxCell>
        <mxCell id="tLTFq7rCDnLnKD5RyEbU-53" value="musteri_ad" style="ellipse;whiteSpace=wrap;html=1;align=center;fillColor=#0050ef;fontColor=#ffffff;strokeColor=#001DBC;" vertex="1" parent="1">
          <mxGeometry x="270" y="130" width="100" height="40" as="geometry" />
        </mxCell>
        <mxCell id="tLTFq7rCDnLnKD5RyEbU-56" style="edgeStyle=orthogonalEdgeStyle;rounded=0;orthogonalLoop=1;jettySize=auto;html=1;exitX=0.5;exitY=1;exitDx=0;exitDy=0;entryX=1;entryY=0.5;entryDx=0;entryDy=0;endArrow=none;endFill=0;" edge="1" parent="1" source="tLTFq7rCDnLnKD5RyEbU-54" target="tLTFq7rCDnLnKD5RyEbU-1">
          <mxGeometry relative="1" as="geometry" />
        </mxCell>
        <mxCell id="tLTFq7rCDnLnKD5RyEbU-54" value="musteri_id" style="ellipse;whiteSpace=wrap;html=1;align=center;fontStyle=4;fillColor=#e3c800;fontColor=#000000;strokeColor=#B09500;" vertex="1" parent="1">
          <mxGeometry x="330" y="190" width="100" height="40" as="geometry" />
        </mxCell>
        <mxCell id="tLTFq7rCDnLnKD5RyEbU-59" style="edgeStyle=orthogonalEdgeStyle;rounded=0;orthogonalLoop=1;jettySize=auto;html=1;exitX=1;exitY=1;exitDx=0;exitDy=0;entryX=0;entryY=0.5;entryDx=0;entryDy=0;endArrow=none;endFill=0;" edge="1" parent="1" source="tLTFq7rCDnLnKD5RyEbU-55" target="tLTFq7rCDnLnKD5RyEbU-1">
          <mxGeometry relative="1" as="geometry" />
        </mxCell>
        <mxCell id="tLTFq7rCDnLnKD5RyEbU-55" value="musteri_email" style="ellipse;whiteSpace=wrap;html=1;align=center;fillColor=#0050ef;fontColor=#ffffff;strokeColor=#001DBC;" vertex="1" parent="1">
          <mxGeometry x="30" y="160" width="100" height="40" as="geometry" />
        </mxCell>
        <mxCell id="tLTFq7rCDnLnKD5RyEbU-58" style="edgeStyle=orthogonalEdgeStyle;rounded=0;orthogonalLoop=1;jettySize=auto;html=1;exitX=0.5;exitY=1;exitDx=0;exitDy=0;entryX=0.418;entryY=-0.029;entryDx=0;entryDy=0;entryPerimeter=0;endArrow=none;endFill=0;" edge="1" parent="1" source="tLTFq7rCDnLnKD5RyEbU-52" target="tLTFq7rCDnLnKD5RyEbU-1">
          <mxGeometry relative="1" as="geometry" />
        </mxCell>
        <mxCell id="tLTFq7rCDnLnKD5RyEbU-79" style="edgeStyle=orthogonalEdgeStyle;rounded=0;orthogonalLoop=1;jettySize=auto;html=1;exitX=0.5;exitY=1;exitDx=0;exitDy=0;entryX=0.25;entryY=0;entryDx=0;entryDy=0;endArrow=none;endFill=0;" edge="1" parent="1" source="tLTFq7rCDnLnKD5RyEbU-60" target="tLTFq7rCDnLnKD5RyEbU-6">
          <mxGeometry relative="1" as="geometry" />
        </mxCell>
        <mxCell id="tLTFq7rCDnLnKD5RyEbU-60" value="gider_miktar" style="ellipse;whiteSpace=wrap;html=1;align=center;fillColor=#0050ef;fontColor=#ffffff;strokeColor=#001DBC;" vertex="1" parent="1">
          <mxGeometry x="670" y="520" width="80" height="30" as="geometry" />
        </mxCell>
        <mxCell id="tLTFq7rCDnLnKD5RyEbU-123" style="edgeStyle=orthogonalEdgeStyle;rounded=0;orthogonalLoop=1;jettySize=auto;html=1;exitX=0.5;exitY=0;exitDx=0;exitDy=0;entryX=1;entryY=1;entryDx=0;entryDy=0;endArrow=none;endFill=0;" edge="1" parent="1" source="tLTFq7rCDnLnKD5RyEbU-62" target="tLTFq7rCDnLnKD5RyEbU-6">
          <mxGeometry relative="1" as="geometry" />
        </mxCell>
        <mxCell id="tLTFq7rCDnLnKD5RyEbU-62" value="gider_id" style="ellipse;whiteSpace=wrap;html=1;align=center;fontStyle=4;fillColor=#e3c800;fontColor=#000000;strokeColor=#B09500;" vertex="1" parent="1">
          <mxGeometry x="690" y="690" width="100" height="40" as="geometry" />
        </mxCell>
        <mxCell id="tLTFq7rCDnLnKD5RyEbU-63" value="maas_miktar" style="ellipse;whiteSpace=wrap;html=1;align=center;fillColor=#0050ef;fontColor=#ffffff;strokeColor=#001DBC;" vertex="1" parent="1">
          <mxGeometry x="670" y="880" width="80" height="40" as="geometry" />
        </mxCell>
        <mxCell id="tLTFq7rCDnLnKD5RyEbU-68" style="edgeStyle=orthogonalEdgeStyle;rounded=0;orthogonalLoop=1;jettySize=auto;html=1;exitX=0.5;exitY=1;exitDx=0;exitDy=0;entryX=0.75;entryY=0;entryDx=0;entryDy=0;endArrow=none;endFill=0;" edge="1" parent="1" source="tLTFq7rCDnLnKD5RyEbU-64" target="tLTFq7rCDnLnKD5RyEbU-10">
          <mxGeometry relative="1" as="geometry" />
        </mxCell>
        <mxCell id="tLTFq7rCDnLnKD5RyEbU-64" value="departman_id" style="ellipse;whiteSpace=wrap;html=1;align=center;fontStyle=4;fillColor=#e3c800;fontColor=#000000;strokeColor=#B09500;" vertex="1" parent="1">
          <mxGeometry x="750" y="910" width="70" height="40" as="geometry" />
        </mxCell>
        <mxCell id="tLTFq7rCDnLnKD5RyEbU-113" style="edgeStyle=orthogonalEdgeStyle;rounded=0;orthogonalLoop=1;jettySize=auto;html=1;exitX=0.5;exitY=0;exitDx=0;exitDy=0;entryX=1;entryY=1;entryDx=0;entryDy=0;endArrow=none;endFill=0;" edge="1" parent="1" source="tLTFq7rCDnLnKD5RyEbU-65" target="tLTFq7rCDnLnKD5RyEbU-10">
          <mxGeometry relative="1" as="geometry" />
        </mxCell>
        <mxCell id="tLTFq7rCDnLnKD5RyEbU-65" value="maas_id" style="ellipse;whiteSpace=wrap;html=1;align=center;fontStyle=4;fillColor=#e3c800;fontColor=#000000;strokeColor=#B09500;" vertex="1" parent="1">
          <mxGeometry x="730" y="1080" width="80" height="30" as="geometry" />
        </mxCell>
        <mxCell id="tLTFq7rCDnLnKD5RyEbU-114" style="edgeStyle=orthogonalEdgeStyle;rounded=0;orthogonalLoop=1;jettySize=auto;html=1;exitX=1;exitY=1;exitDx=0;exitDy=0;entryX=0;entryY=0;entryDx=0;entryDy=0;endArrow=none;endFill=0;" edge="1" parent="1" source="tLTFq7rCDnLnKD5RyEbU-66" target="tLTFq7rCDnLnKD5RyEbU-10">
          <mxGeometry relative="1" as="geometry" />
        </mxCell>
        <mxCell id="tLTFq7rCDnLnKD5RyEbU-66" value="maas_tarih" style="ellipse;whiteSpace=wrap;html=1;align=center;fillColor=#0050ef;fontColor=#ffffff;strokeColor=#001DBC;" vertex="1" parent="1">
          <mxGeometry x="610" y="940" width="80" height="40" as="geometry" />
        </mxCell>
        <mxCell id="tLTFq7rCDnLnKD5RyEbU-69" style="edgeStyle=orthogonalEdgeStyle;rounded=0;orthogonalLoop=1;jettySize=auto;html=1;exitX=0.5;exitY=1;exitDx=0;exitDy=0;entryX=0.334;entryY=-0.092;entryDx=0;entryDy=0;entryPerimeter=0;endArrow=none;endFill=0;" edge="1" parent="1" source="tLTFq7rCDnLnKD5RyEbU-63" target="tLTFq7rCDnLnKD5RyEbU-10">
          <mxGeometry relative="1" as="geometry" />
        </mxCell>
        <mxCell id="tLTFq7rCDnLnKD5RyEbU-88" style="edgeStyle=orthogonalEdgeStyle;rounded=0;orthogonalLoop=1;jettySize=auto;html=1;exitX=1;exitY=1;exitDx=0;exitDy=0;entryX=0;entryY=0.5;entryDx=0;entryDy=0;endArrow=none;endFill=0;" edge="1" parent="1" source="tLTFq7rCDnLnKD5RyEbU-71" target="tLTFq7rCDnLnKD5RyEbU-9">
          <mxGeometry relative="1" as="geometry" />
        </mxCell>
        <mxCell id="tLTFq7rCDnLnKD5RyEbU-71" value="isler_ad" style="ellipse;whiteSpace=wrap;html=1;align=center;fillColor=#0050ef;fontColor=#ffffff;strokeColor=#001DBC;" vertex="1" parent="1">
          <mxGeometry x="44" y="460" width="100" height="40" as="geometry" />
        </mxCell>
        <mxCell id="tLTFq7rCDnLnKD5RyEbU-134" style="edgeStyle=orthogonalEdgeStyle;rounded=0;orthogonalLoop=1;jettySize=auto;html=1;exitX=1;exitY=1;exitDx=0;exitDy=0;entryX=0.25;entryY=0;entryDx=0;entryDy=0;endArrow=none;endFill=0;" edge="1" parent="1" source="tLTFq7rCDnLnKD5RyEbU-72" target="tLTFq7rCDnLnKD5RyEbU-30">
          <mxGeometry relative="1" as="geometry" />
        </mxCell>
        <mxCell id="tLTFq7rCDnLnKD5RyEbU-72" value="fis_ad" style="ellipse;whiteSpace=wrap;html=1;align=center;fillColor=#0050ef;fontColor=#ffffff;strokeColor=#001DBC;" vertex="1" parent="1">
          <mxGeometry x="590" y="230" width="100" height="40" as="geometry" />
        </mxCell>
        <mxCell id="tLTFq7rCDnLnKD5RyEbU-87" style="edgeStyle=orthogonalEdgeStyle;rounded=0;orthogonalLoop=1;jettySize=auto;html=1;exitX=0.5;exitY=1;exitDx=0;exitDy=0;entryX=0.5;entryY=0;entryDx=0;entryDy=0;endArrow=none;endFill=0;" edge="1" parent="1" source="tLTFq7rCDnLnKD5RyEbU-73" target="tLTFq7rCDnLnKD5RyEbU-9">
          <mxGeometry relative="1" as="geometry" />
        </mxCell>
        <mxCell id="tLTFq7rCDnLnKD5RyEbU-73" value="isler_id" style="ellipse;whiteSpace=wrap;html=1;align=center;fontStyle=4;fillColor=#e3c800;fontColor=#000000;strokeColor=#B09500;" vertex="1" parent="1">
          <mxGeometry x="130" y="430" width="100" height="40" as="geometry" />
        </mxCell>
        <mxCell id="tLTFq7rCDnLnKD5RyEbU-133" style="edgeStyle=orthogonalEdgeStyle;rounded=0;orthogonalLoop=1;jettySize=auto;html=1;exitX=0;exitY=1;exitDx=0;exitDy=0;entryX=0.75;entryY=0;entryDx=0;entryDy=0;endArrow=none;endFill=0;" edge="1" parent="1" source="tLTFq7rCDnLnKD5RyEbU-74" target="tLTFq7rCDnLnKD5RyEbU-30">
          <mxGeometry relative="1" as="geometry" />
        </mxCell>
        <mxCell id="tLTFq7rCDnLnKD5RyEbU-74" value="fis_id" style="ellipse;whiteSpace=wrap;html=1;align=center;fontStyle=4;fillColor=#e3c800;fontColor=#000000;strokeColor=#B09500;" vertex="1" parent="1">
          <mxGeometry x="727" y="240" width="100" height="40" as="geometry" />
        </mxCell>
        <mxCell id="tLTFq7rCDnLnKD5RyEbU-78" style="edgeStyle=orthogonalEdgeStyle;rounded=0;orthogonalLoop=1;jettySize=auto;html=1;exitX=0.5;exitY=1;exitDx=0;exitDy=0;endArrow=none;endFill=0;entryX=1;entryY=0;entryDx=0;entryDy=0;" edge="1" parent="1" source="tLTFq7rCDnLnKD5RyEbU-75" target="tLTFq7rCDnLnKD5RyEbU-6">
          <mxGeometry relative="1" as="geometry" />
        </mxCell>
        <mxCell id="tLTFq7rCDnLnKD5RyEbU-75" value="fis_id" style="ellipse;whiteSpace=wrap;html=1;align=center;fontStyle=4;fillColor=#e3c800;fontColor=#000000;strokeColor=#B09500;" vertex="1" parent="1">
          <mxGeometry x="740" y="550" width="80" height="30" as="geometry" />
        </mxCell>
        <mxCell id="tLTFq7rCDnLnKD5RyEbU-89" style="edgeStyle=orthogonalEdgeStyle;rounded=0;orthogonalLoop=1;jettySize=auto;html=1;exitX=1;exitY=0.5;exitDx=0;exitDy=0;endArrow=none;endFill=0;entryX=0;entryY=0.75;entryDx=0;entryDy=0;" edge="1" parent="1" source="tLTFq7rCDnLnKD5RyEbU-81" target="tLTFq7rCDnLnKD5RyEbU-9">
          <mxGeometry relative="1" as="geometry">
            <mxPoint x="170" y="530" as="targetPoint" />
          </mxGeometry>
        </mxCell>
        <mxCell id="tLTFq7rCDnLnKD5RyEbU-81" value="isler_mekan" style="ellipse;whiteSpace=wrap;html=1;align=center;fillColor=#0050ef;fontColor=#ffffff;strokeColor=#001DBC;" vertex="1" parent="1">
          <mxGeometry x="10" y="515" width="100" height="40" as="geometry" />
        </mxCell>
        <mxCell id="tLTFq7rCDnLnKD5RyEbU-126" style="edgeStyle=orthogonalEdgeStyle;rounded=0;orthogonalLoop=1;jettySize=auto;html=1;exitX=1;exitY=0;exitDx=0;exitDy=0;entryX=0;entryY=1;entryDx=0;entryDy=0;endArrow=none;endFill=0;" edge="1" parent="1" source="tLTFq7rCDnLnKD5RyEbU-82" target="tLTFq7rCDnLnKD5RyEbU-9">
          <mxGeometry relative="1" as="geometry" />
        </mxCell>
        <mxCell id="tLTFq7rCDnLnKD5RyEbU-82" value="isler_zaman" style="ellipse;whiteSpace=wrap;html=1;align=center;fillColor=#0050ef;fontColor=#ffffff;strokeColor=#001DBC;" vertex="1" parent="1">
          <mxGeometry x="10" y="570" width="100" height="40" as="geometry" />
        </mxCell>
        <mxCell id="tLTFq7rCDnLnKD5RyEbU-84" value="isler_gelir" style="ellipse;whiteSpace=wrap;html=1;align=center;fillColor=#0050ef;fontColor=#ffffff;strokeColor=#001DBC;" vertex="1" parent="1">
          <mxGeometry x="205" y="584" width="100" height="40" as="geometry" />
        </mxCell>
        <mxCell id="tLTFq7rCDnLnKD5RyEbU-85" value="musteri_id" style="ellipse;whiteSpace=wrap;html=1;align=center;fontStyle=4;fillColor=#e3c800;fontColor=#000000;strokeColor=#B09500;" vertex="1" parent="1">
          <mxGeometry x="270" y="420" width="100" height="40" as="geometry" />
        </mxCell>
        <mxCell id="tLTFq7rCDnLnKD5RyEbU-92" style="edgeStyle=orthogonalEdgeStyle;rounded=0;orthogonalLoop=1;jettySize=auto;html=1;exitX=0;exitY=0.5;exitDx=0;exitDy=0;entryX=1;entryY=0.5;entryDx=0;entryDy=0;endArrow=none;endFill=0;" edge="1" parent="1" source="tLTFq7rCDnLnKD5RyEbU-86" target="tLTFq7rCDnLnKD5RyEbU-9">
          <mxGeometry relative="1" as="geometry" />
        </mxCell>
        <mxCell id="tLTFq7rCDnLnKD5RyEbU-86" value="gider_id" style="ellipse;whiteSpace=wrap;html=1;align=center;fontStyle=4;fillColor=#e3c800;fontColor=#000000;strokeColor=#B09500;" vertex="1" parent="1">
          <mxGeometry x="305" y="470" width="100" height="40" as="geometry" />
        </mxCell>
        <mxCell id="tLTFq7rCDnLnKD5RyEbU-91" style="edgeStyle=orthogonalEdgeStyle;rounded=0;orthogonalLoop=1;jettySize=auto;html=1;exitX=0.5;exitY=0;exitDx=0;exitDy=0;entryX=0.6;entryY=1;entryDx=0;entryDy=0;entryPerimeter=0;endArrow=none;endFill=0;" edge="1" parent="1" source="tLTFq7rCDnLnKD5RyEbU-84" target="tLTFq7rCDnLnKD5RyEbU-9">
          <mxGeometry relative="1" as="geometry" />
        </mxCell>
        <mxCell id="tLTFq7rCDnLnKD5RyEbU-93" style="edgeStyle=orthogonalEdgeStyle;rounded=0;orthogonalLoop=1;jettySize=auto;html=1;exitX=0;exitY=1;exitDx=0;exitDy=0;entryX=0.878;entryY=-0.039;entryDx=0;entryDy=0;entryPerimeter=0;endArrow=none;endFill=0;" edge="1" parent="1" source="tLTFq7rCDnLnKD5RyEbU-85" target="tLTFq7rCDnLnKD5RyEbU-9">
          <mxGeometry relative="1" as="geometry" />
        </mxCell>
        <mxCell id="tLTFq7rCDnLnKD5RyEbU-110" style="edgeStyle=orthogonalEdgeStyle;rounded=0;orthogonalLoop=1;jettySize=auto;html=1;exitX=1;exitY=0.5;exitDx=0;exitDy=0;entryX=0;entryY=0.75;entryDx=0;entryDy=0;endArrow=none;endFill=0;" edge="1" parent="1" source="tLTFq7rCDnLnKD5RyEbU-95" target="tLTFq7rCDnLnKD5RyEbU-4">
          <mxGeometry relative="1" as="geometry" />
        </mxCell>
        <mxCell id="tLTFq7rCDnLnKD5RyEbU-180" value="1" style="edgeLabel;html=1;align=center;verticalAlign=middle;resizable=0;points=[];" vertex="1" connectable="0" parent="tLTFq7rCDnLnKD5RyEbU-110">
          <mxGeometry x="-0.2667" y="5" relative="1" as="geometry">
            <mxPoint x="-1" as="offset" />
          </mxGeometry>
        </mxCell>
        <mxCell id="tLTFq7rCDnLnKD5RyEbU-95" value="personel_depart" style="shape=rhombus;perimeter=rhombusPerimeter;whiteSpace=wrap;html=1;align=center;fillColor=#60a917;fontColor=#ffffff;strokeColor=#2D7600;" vertex="1" parent="1">
          <mxGeometry x="300" y="1030" width="110" height="60" as="geometry" />
        </mxCell>
        <mxCell id="tLTFq7rCDnLnKD5RyEbU-96" value="personel_sehir" style="shape=rhombus;perimeter=rhombusPerimeter;whiteSpace=wrap;html=1;align=center;fillColor=#60a917;fontColor=#ffffff;strokeColor=#2D7600;" vertex="1" parent="1">
          <mxGeometry x="230" y="830" width="120" height="50" as="geometry" />
        </mxCell>
        <mxCell id="tLTFq7rCDnLnKD5RyEbU-97" value="depart_maas" style="shape=rhombus;perimeter=rhombusPerimeter;whiteSpace=wrap;html=1;align=center;fillColor=#60a917;fontColor=#ffffff;strokeColor=#2D7600;" vertex="1" parent="1">
          <mxGeometry x="590" y="1020" width="120" height="60" as="geometry" />
        </mxCell>
        <mxCell id="tLTFq7rCDnLnKD5RyEbU-121" style="edgeStyle=orthogonalEdgeStyle;rounded=0;orthogonalLoop=1;jettySize=auto;html=1;exitX=0;exitY=0.5;exitDx=0;exitDy=0;entryX=1;entryY=0.75;entryDx=0;entryDy=0;endArrow=none;endFill=0;" edge="1" parent="1" source="tLTFq7rCDnLnKD5RyEbU-98" target="tLTFq7rCDnLnKD5RyEbU-9">
          <mxGeometry relative="1" as="geometry" />
        </mxCell>
        <mxCell id="tLTFq7rCDnLnKD5RyEbU-177" value="1" style="edgeLabel;html=1;align=center;verticalAlign=middle;resizable=0;points=[];" vertex="1" connectable="0" parent="tLTFq7rCDnLnKD5RyEbU-121">
          <mxGeometry x="-0.2837" y="-3" relative="1" as="geometry">
            <mxPoint x="-1" as="offset" />
          </mxGeometry>
        </mxCell>
        <mxCell id="tLTFq7rCDnLnKD5RyEbU-98" value="isler_gider" style="shape=rhombus;perimeter=rhombusPerimeter;whiteSpace=wrap;html=1;align=center;fillColor=#60a917;fontColor=#ffffff;strokeColor=#2D7600;" vertex="1" parent="1">
          <mxGeometry x="405" y="510" width="120" height="60" as="geometry" />
        </mxCell>
        <mxCell id="tLTFq7rCDnLnKD5RyEbU-131" style="edgeStyle=orthogonalEdgeStyle;rounded=0;orthogonalLoop=1;jettySize=auto;html=1;exitX=0.5;exitY=1;exitDx=0;exitDy=0;entryX=0.75;entryY=0;entryDx=0;entryDy=0;endArrow=none;endFill=0;" edge="1" parent="1" source="tLTFq7rCDnLnKD5RyEbU-99" target="tLTFq7rCDnLnKD5RyEbU-9">
          <mxGeometry relative="1" as="geometry" />
        </mxCell>
        <mxCell id="tLTFq7rCDnLnKD5RyEbU-172" value="m" style="edgeLabel;html=1;align=center;verticalAlign=middle;resizable=0;points=[];" vertex="1" connectable="0" parent="tLTFq7rCDnLnKD5RyEbU-131">
          <mxGeometry x="-0.1792" y="1" relative="1" as="geometry">
            <mxPoint as="offset" />
          </mxGeometry>
        </mxCell>
        <mxCell id="tLTFq7rCDnLnKD5RyEbU-132" style="edgeStyle=orthogonalEdgeStyle;rounded=0;orthogonalLoop=1;jettySize=auto;html=1;exitX=0.5;exitY=0;exitDx=0;exitDy=0;entryX=0.5;entryY=1;entryDx=0;entryDy=0;endArrow=none;endFill=0;" edge="1" parent="1" source="tLTFq7rCDnLnKD5RyEbU-99" target="tLTFq7rCDnLnKD5RyEbU-1">
          <mxGeometry relative="1" as="geometry" />
        </mxCell>
        <mxCell id="tLTFq7rCDnLnKD5RyEbU-173" value="1" style="edgeLabel;html=1;align=center;verticalAlign=middle;resizable=0;points=[];" vertex="1" connectable="0" parent="tLTFq7rCDnLnKD5RyEbU-132">
          <mxGeometry x="0.15" y="-2" relative="1" as="geometry">
            <mxPoint as="offset" />
          </mxGeometry>
        </mxCell>
        <mxCell id="tLTFq7rCDnLnKD5RyEbU-99" value="musteri_is" style="shape=rhombus;perimeter=rhombusPerimeter;whiteSpace=wrap;html=1;align=center;fillColor=#60a917;fontColor=#ffffff;strokeColor=#2D7600;" vertex="1" parent="1">
          <mxGeometry x="180" y="290" width="120" height="60" as="geometry" />
        </mxCell>
        <mxCell id="tLTFq7rCDnLnKD5RyEbU-100" value="fisler_giderler" style="shape=rhombus;perimeter=rhombusPerimeter;whiteSpace=wrap;html=1;align=center;fillColor=#60a917;fontColor=#ffffff;strokeColor=#2D7600;" vertex="1" parent="1">
          <mxGeometry x="590" y="380" width="120" height="60" as="geometry" />
        </mxCell>
        <mxCell id="tLTFq7rCDnLnKD5RyEbU-104" style="edgeStyle=orthogonalEdgeStyle;rounded=0;orthogonalLoop=1;jettySize=auto;html=1;exitX=1;exitY=0.5;exitDx=0;exitDy=0;entryX=0;entryY=0;entryDx=0;entryDy=0;endArrow=none;endFill=0;" edge="1" parent="1" source="tLTFq7rCDnLnKD5RyEbU-41" target="tLTFq7rCDnLnKD5RyEbU-2">
          <mxGeometry relative="1" as="geometry" />
        </mxCell>
        <mxCell id="tLTFq7rCDnLnKD5RyEbU-41" value="departman_id" style="ellipse;whiteSpace=wrap;html=1;align=center;fontStyle=4;fillColor=#e3c800;fontColor=#000000;strokeColor=#B09500;" vertex="1" parent="1">
          <mxGeometry y="940" width="100" height="40" as="geometry" />
        </mxCell>
        <mxCell id="tLTFq7rCDnLnKD5RyEbU-119" style="edgeStyle=orthogonalEdgeStyle;rounded=0;orthogonalLoop=1;jettySize=auto;html=1;exitX=0;exitY=0;exitDx=0;exitDy=0;entryX=0.75;entryY=1;entryDx=0;entryDy=0;endArrow=none;endFill=0;" edge="1" parent="1" source="tLTFq7rCDnLnKD5RyEbU-115" target="tLTFq7rCDnLnKD5RyEbU-9">
          <mxGeometry relative="1" as="geometry">
            <Array as="points">
              <mxPoint x="270" y="570" />
              <mxPoint x="270" y="540" />
            </Array>
          </mxGeometry>
        </mxCell>
        <mxCell id="tLTFq7rCDnLnKD5RyEbU-115" value="personel_id" style="ellipse;whiteSpace=wrap;html=1;align=center;fontStyle=4;fillColor=#e3c800;fontColor=#000000;strokeColor=#B09500;" vertex="1" parent="1">
          <mxGeometry x="310" y="564" width="100" height="40" as="geometry" />
        </mxCell>
        <mxCell id="tLTFq7rCDnLnKD5RyEbU-128" value="personel_is" style="shape=rhombus;perimeter=rhombusPerimeter;whiteSpace=wrap;html=1;align=center;rotation=0;fillColor=#60a917;fontColor=#ffffff;strokeColor=#2D7600;" vertex="1" parent="1">
          <mxGeometry x="140" y="710" width="120" height="60" as="geometry" />
        </mxCell>
        <mxCell id="tLTFq7rCDnLnKD5RyEbU-154" style="edgeStyle=orthogonalEdgeStyle;rounded=0;orthogonalLoop=1;jettySize=auto;html=1;exitX=0;exitY=0.5;exitDx=0;exitDy=0;entryX=1;entryY=0.5;entryDx=0;entryDy=0;endArrow=none;endFill=0;" edge="1" parent="1" source="tLTFq7rCDnLnKD5RyEbU-137" target="tLTFq7rCDnLnKD5RyEbU-99">
          <mxGeometry relative="1" as="geometry" />
        </mxCell>
        <mxCell id="tLTFq7rCDnLnKD5RyEbU-137" value="musteri_id" style="ellipse;whiteSpace=wrap;html=1;align=center;fontStyle=4;fillColor=#fa6800;fontColor=#000000;strokeColor=#C73500;" vertex="1" parent="1">
          <mxGeometry x="330" y="300" width="60" height="40" as="geometry" />
        </mxCell>
        <mxCell id="tLTFq7rCDnLnKD5RyEbU-155" style="edgeStyle=orthogonalEdgeStyle;rounded=0;orthogonalLoop=1;jettySize=auto;html=1;exitX=1;exitY=0.5;exitDx=0;exitDy=0;entryX=0;entryY=0.5;entryDx=0;entryDy=0;endArrow=none;endFill=0;" edge="1" parent="1" source="tLTFq7rCDnLnKD5RyEbU-140" target="tLTFq7rCDnLnKD5RyEbU-99">
          <mxGeometry relative="1" as="geometry" />
        </mxCell>
        <mxCell id="tLTFq7rCDnLnKD5RyEbU-140" value="isler_id" style="ellipse;whiteSpace=wrap;html=1;align=center;fontStyle=4;fillColor=#fa6800;fontColor=#000000;strokeColor=#C73500;" vertex="1" parent="1">
          <mxGeometry x="70" y="300" width="60" height="40" as="geometry" />
        </mxCell>
        <mxCell id="tLTFq7rCDnLnKD5RyEbU-156" style="edgeStyle=orthogonalEdgeStyle;rounded=0;orthogonalLoop=1;jettySize=auto;html=1;exitX=0;exitY=1;exitDx=0;exitDy=0;entryX=0.5;entryY=0;entryDx=0;entryDy=0;endArrow=none;endFill=0;" edge="1" parent="1" source="tLTFq7rCDnLnKD5RyEbU-141" target="tLTFq7rCDnLnKD5RyEbU-98">
          <mxGeometry relative="1" as="geometry" />
        </mxCell>
        <mxCell id="tLTFq7rCDnLnKD5RyEbU-141" value="gider_id" style="ellipse;whiteSpace=wrap;html=1;align=center;fontStyle=4;fillColor=#fa6800;fontColor=#000000;strokeColor=#C73500;" vertex="1" parent="1">
          <mxGeometry x="480" y="450" width="60" height="40" as="geometry" />
        </mxCell>
        <mxCell id="tLTFq7rCDnLnKD5RyEbU-157" style="edgeStyle=orthogonalEdgeStyle;rounded=0;orthogonalLoop=1;jettySize=auto;html=1;exitX=0.5;exitY=0;exitDx=0;exitDy=0;entryX=0.5;entryY=1;entryDx=0;entryDy=0;endArrow=none;endFill=0;" edge="1" parent="1" source="tLTFq7rCDnLnKD5RyEbU-142" target="tLTFq7rCDnLnKD5RyEbU-98">
          <mxGeometry relative="1" as="geometry" />
        </mxCell>
        <mxCell id="tLTFq7rCDnLnKD5RyEbU-142" value="isler_id" style="ellipse;whiteSpace=wrap;html=1;align=center;fontStyle=4;fillColor=#fa6800;fontColor=#000000;strokeColor=#C73500;" vertex="1" parent="1">
          <mxGeometry x="450" y="590" width="60" height="40" as="geometry" />
        </mxCell>
        <mxCell id="tLTFq7rCDnLnKD5RyEbU-159" style="edgeStyle=orthogonalEdgeStyle;rounded=0;orthogonalLoop=1;jettySize=auto;html=1;exitX=1;exitY=1;exitDx=0;exitDy=0;entryX=0;entryY=0.5;entryDx=0;entryDy=0;endArrow=none;endFill=0;" edge="1" parent="1" source="tLTFq7rCDnLnKD5RyEbU-143" target="tLTFq7rCDnLnKD5RyEbU-100">
          <mxGeometry relative="1" as="geometry" />
        </mxCell>
        <mxCell id="tLTFq7rCDnLnKD5RyEbU-143" value="fis_id" style="ellipse;whiteSpace=wrap;html=1;align=center;fontStyle=4;fillColor=#fa6800;fontColor=#000000;strokeColor=#C73500;" vertex="1" parent="1">
          <mxGeometry x="525" y="360" width="60" height="40" as="geometry" />
        </mxCell>
        <mxCell id="tLTFq7rCDnLnKD5RyEbU-158" style="edgeStyle=orthogonalEdgeStyle;rounded=0;orthogonalLoop=1;jettySize=auto;html=1;exitX=0;exitY=1;exitDx=0;exitDy=0;entryX=1;entryY=0.5;entryDx=0;entryDy=0;endArrow=none;endFill=0;" edge="1" parent="1" source="tLTFq7rCDnLnKD5RyEbU-144" target="tLTFq7rCDnLnKD5RyEbU-100">
          <mxGeometry relative="1" as="geometry" />
        </mxCell>
        <mxCell id="tLTFq7rCDnLnKD5RyEbU-144" value="gider_id" style="ellipse;whiteSpace=wrap;html=1;align=center;fontStyle=4;fillColor=#fa6800;fontColor=#000000;strokeColor=#C73500;" vertex="1" parent="1">
          <mxGeometry x="727" y="370" width="60" height="40" as="geometry" />
        </mxCell>
        <mxCell id="tLTFq7rCDnLnKD5RyEbU-166" style="edgeStyle=orthogonalEdgeStyle;rounded=0;orthogonalLoop=1;jettySize=auto;html=1;exitX=0;exitY=0.5;exitDx=0;exitDy=0;entryX=1;entryY=0.5;entryDx=0;entryDy=0;" edge="1" parent="1" source="tLTFq7rCDnLnKD5RyEbU-145" target="tLTFq7rCDnLnKD5RyEbU-128">
          <mxGeometry relative="1" as="geometry" />
        </mxCell>
        <mxCell id="tLTFq7rCDnLnKD5RyEbU-145" value="isler_id" style="ellipse;whiteSpace=wrap;html=1;align=center;fontStyle=4;fillColor=#fa6800;fontColor=#000000;strokeColor=#C73500;" vertex="1" parent="1">
          <mxGeometry x="290" y="710" width="60" height="40" as="geometry" />
        </mxCell>
        <mxCell id="tLTFq7rCDnLnKD5RyEbU-167" style="edgeStyle=orthogonalEdgeStyle;rounded=0;orthogonalLoop=1;jettySize=auto;html=1;exitX=1;exitY=0.5;exitDx=0;exitDy=0;entryX=0;entryY=0.5;entryDx=0;entryDy=0;" edge="1" parent="1" source="tLTFq7rCDnLnKD5RyEbU-146" target="tLTFq7rCDnLnKD5RyEbU-128">
          <mxGeometry relative="1" as="geometry" />
        </mxCell>
        <mxCell id="tLTFq7rCDnLnKD5RyEbU-146" value="per_id" style="ellipse;whiteSpace=wrap;html=1;align=center;fontStyle=4;fillColor=#fa6800;fontColor=#000000;strokeColor=#C73500;" vertex="1" parent="1">
          <mxGeometry x="50" y="710" width="60" height="40" as="geometry" />
        </mxCell>
        <mxCell id="tLTFq7rCDnLnKD5RyEbU-165" style="edgeStyle=orthogonalEdgeStyle;rounded=0;orthogonalLoop=1;jettySize=auto;html=1;exitX=0;exitY=0;exitDx=0;exitDy=0;entryX=1;entryY=1;entryDx=0;entryDy=0;endArrow=none;endFill=0;" edge="1" parent="1" source="tLTFq7rCDnLnKD5RyEbU-147" target="tLTFq7rCDnLnKD5RyEbU-96">
          <mxGeometry relative="1" as="geometry" />
        </mxCell>
        <mxCell id="tLTFq7rCDnLnKD5RyEbU-147" value="sehir_id" style="ellipse;whiteSpace=wrap;html=1;align=center;fontStyle=4;fillColor=#fa6800;fontColor=#000000;strokeColor=#C73500;" vertex="1" parent="1">
          <mxGeometry x="300" y="890" width="60" height="40" as="geometry" />
        </mxCell>
        <mxCell id="tLTFq7rCDnLnKD5RyEbU-148" value="per_id" style="ellipse;whiteSpace=wrap;html=1;align=center;fontStyle=4;fillColor=#fa6800;fontColor=#000000;strokeColor=#C73500;" vertex="1" parent="1">
          <mxGeometry x="214" y="790" width="60" height="40" as="geometry" />
        </mxCell>
        <mxCell id="tLTFq7rCDnLnKD5RyEbU-160" style="edgeStyle=orthogonalEdgeStyle;rounded=0;orthogonalLoop=1;jettySize=auto;html=1;exitX=1;exitY=1;exitDx=0;exitDy=0;entryX=0;entryY=0;entryDx=0;entryDy=0;endArrow=none;endFill=0;" edge="1" parent="1" source="tLTFq7rCDnLnKD5RyEbU-149" target="tLTFq7rCDnLnKD5RyEbU-97">
          <mxGeometry relative="1" as="geometry" />
        </mxCell>
        <mxCell id="tLTFq7rCDnLnKD5RyEbU-149" value="dep_id" style="ellipse;whiteSpace=wrap;html=1;align=center;fontStyle=4;fillColor=#fa6800;fontColor=#000000;strokeColor=#C73500;" vertex="1" parent="1">
          <mxGeometry x="540" y="980" width="60" height="40" as="geometry" />
        </mxCell>
        <mxCell id="tLTFq7rCDnLnKD5RyEbU-161" style="edgeStyle=orthogonalEdgeStyle;rounded=0;orthogonalLoop=1;jettySize=auto;html=1;exitX=0.5;exitY=0;exitDx=0;exitDy=0;entryX=1;entryY=1;entryDx=0;entryDy=0;endArrow=none;endFill=0;" edge="1" parent="1" source="tLTFq7rCDnLnKD5RyEbU-150" target="tLTFq7rCDnLnKD5RyEbU-97">
          <mxGeometry relative="1" as="geometry" />
        </mxCell>
        <mxCell id="tLTFq7rCDnLnKD5RyEbU-150" value="maas_id" style="ellipse;whiteSpace=wrap;html=1;align=center;fontStyle=4;fillColor=#fa6800;fontColor=#000000;strokeColor=#C73500;" vertex="1" parent="1">
          <mxGeometry x="640" y="1090" width="60" height="40" as="geometry" />
        </mxCell>
        <mxCell id="tLTFq7rCDnLnKD5RyEbU-162" style="edgeStyle=orthogonalEdgeStyle;rounded=0;orthogonalLoop=1;jettySize=auto;html=1;exitX=1;exitY=1;exitDx=0;exitDy=0;entryX=1;entryY=0;entryDx=0;entryDy=0;endArrow=none;endFill=0;" edge="1" parent="1" source="tLTFq7rCDnLnKD5RyEbU-152" target="tLTFq7rCDnLnKD5RyEbU-95">
          <mxGeometry relative="1" as="geometry" />
        </mxCell>
        <mxCell id="tLTFq7rCDnLnKD5RyEbU-152" value="per_id" style="ellipse;whiteSpace=wrap;html=1;align=center;fontStyle=4;fillColor=#fa6800;fontColor=#000000;strokeColor=#C73500;" vertex="1" parent="1">
          <mxGeometry x="330" y="960" width="60" height="40" as="geometry" />
        </mxCell>
        <mxCell id="tLTFq7rCDnLnKD5RyEbU-163" style="edgeStyle=orthogonalEdgeStyle;rounded=0;orthogonalLoop=1;jettySize=auto;html=1;exitX=0;exitY=0;exitDx=0;exitDy=0;entryX=0;entryY=1;entryDx=0;entryDy=0;endArrow=none;endFill=0;" edge="1" parent="1" source="tLTFq7rCDnLnKD5RyEbU-153" target="tLTFq7rCDnLnKD5RyEbU-95">
          <mxGeometry relative="1" as="geometry" />
        </mxCell>
        <mxCell id="tLTFq7rCDnLnKD5RyEbU-153" value="dep_id" style="ellipse;whiteSpace=wrap;html=1;align=center;fontStyle=4;fillColor=#fa6800;fontColor=#000000;strokeColor=#C73500;" vertex="1" parent="1">
          <mxGeometry x="310" y="1100" width="60" height="40" as="geometry" />
        </mxCell>
        <mxCell id="tLTFq7rCDnLnKD5RyEbU-164" style="edgeStyle=orthogonalEdgeStyle;rounded=0;orthogonalLoop=1;jettySize=auto;html=1;exitX=1;exitY=1;exitDx=0;exitDy=0;entryX=0.358;entryY=0.195;entryDx=0;entryDy=0;entryPerimeter=0;endArrow=none;endFill=0;" edge="1" parent="1" source="tLTFq7rCDnLnKD5RyEbU-148" target="tLTFq7rCDnLnKD5RyEbU-96">
          <mxGeometry relative="1" as="geometry" />
        </mxCell>
        <mxCell id="tLTFq7rCDnLnKD5RyEbU-184" value="FK" style="ellipse;whiteSpace=wrap;html=1;align=center;fontStyle=4;fillColor=#fa6800;fontColor=#000000;strokeColor=#C73500;" vertex="1" parent="1">
          <mxGeometry x="610" y="80" width="100" height="40" as="geometry" />
        </mxCell>
        <mxCell id="tLTFq7rCDnLnKD5RyEbU-186" value="PK" style="ellipse;whiteSpace=wrap;html=1;align=center;fontStyle=4;fillColor=#e3c800;fontColor=#000000;strokeColor=#B09500;" vertex="1" parent="1">
          <mxGeometry x="480" y="80" width="100" height="40" as="geometry" />
        </mxCell>
      </root>
    </mxGraphModel>
  </diagram>
</mxfile>
